# xmcd
#
# Track frame offsets: 
#        150
#        24448
#        48634
#        74705
#        97031
#        121218
#        141610
#        160321
#        186308
#        206845
#        235834
#        253798
#
# Disc length: 3625 seconds
#
# Revision: 0
# Processed by: cddbd v1.5.2PL0 Copyright (c) Steve Scherf et al.
# Submitted via: ExactAudioCopy v0.99pb3
#
DISCID=bd0e270c
DTITLE=Edward M. Kennedy - True Compass (08 of 17)
DYEAR=2009
DGENRE=AudioBook
TTITLE0=0801
TTITLE1=0802
TTITLE2=0803
TTITLE3=0804
TTITLE4=0805
TTITLE5=0806
TTITLE6=0807
TTITLE7=0808
TTITLE8=0809
TTITLE9=0810
TTITLE10=0811
TTITLE11=0812
EXTD=
EXTT0=
EXTT1=
EXTT2=
EXTT3=
EXTT4=
EXTT5=
EXTT6=
EXTT7=
EXTT8=
EXTT9=
EXTT10=
EXTT11=
PLAYORDER=
